<svg xmlns="http://www.w3.org/2000/svg" xmlns:xlink="http://www.w3.org/1999/xlink" width="840" height="711.3"><rect width="840" height="711.3" rx="5" ry="5" class="a"/><svg y="0%" x="0%"><circle cx="20" cy="20" r="6" fill="#ff5f58"/><circle cx="40" cy="20" r="6" fill="#ffbd2e"/><circle cx="60" cy="20" r="6" fill="#18c132"/></svg><svg height="651.3" viewBox="0 0 80 65.13" width="800" x="15" xmlns="http://www.w3.org/2000/svg" xmlns:xlink="http://www.w3.org/1999/xlink" y="50"><style>.a{fill:#282d35}.g{font-weight:700}.g,.h,.i,.j{fill:#b9c0cb;white-space:pre}.i,.j{fill:#66c2cd}.j{fill:#dbab79}</style><g font-family="Monaco,Consolas,Menlo,'Bitstream Vera Sans Mono','Powerline Symbols',monospace" font-size="1.67"><defs><symbol id="a"><path fill="transparent" d="M0 0h80v31H0z"/></symbol></defs><path class="a" d="M0 0h80v65.13H0z"/><svg width="80"><svg><use xlink:href="#a"/><text x="2.004" y="3.841" class="g">🔄</text><text x="5.01" y="3.841" class="h">Sync</text><text x="10.02" y="3.841" class="h">Dashboard</text><text x="2.004" y="8.183" class="g">⚠</text><text x="4.008" y="8.183" class="g">Dirty</text><text x="10.02" y="8.183" class="h">(5):</text><text x="4.008" y="10.354" class="i">claude-headless</text><text x="20.04" y="10.354" class="h">main</text><text x="26.052" y="10.354" class="j">1</text><text x="28.056" y="10.354" class="j">file</text><text x="4.008" y="12.525" class="i">claude-project-cli</text><text x="23.046" y="12.525" class="h">main</text><text x="29.058" y="12.525" class="j">1</text><text x="31.062" y="12.525" class="j">file</text><text x="4.008" y="14.696" class="i">d3-wysiwyg</text><text x="15.03" y="14.696" class="h">master</text><text x="23.046" y="14.696" class="j">8</text><text x="25.05" y="14.696" class="j">files</text><text x="4.008" y="16.867" class="i">faceswap-api</text><text x="17.034" y="16.867" class="h">main</text><text x="23.046" y="16.867" class="j">20</text><text x="26.052" y="16.867" class="j">files</text><text x="4.008" y="19.038" class="i">solidkit</text><text x="13.026" y="19.038" class="h">main</text><text x="19.038" y="19.038" class="j">5</text><text x="21.042" y="19.038" class="j">files</text><text x="2.004" y="23.38" class="g">💻</text><text x="5.01" y="23.38" class="g">No</text><text x="8.016" y="23.38" class="g">git</text><text x="12.024" y="23.38" class="h">(10):</text><text x="4.008" y="25.551" class="i">app-hub</text><text x="4.008" y="27.722" class="i">dfl-face-filter</text><text x="4.008" y="29.893" class="i">learning-odoo</text><text x="4.008" y="32.064" class="i">linkedin</text><text x="4.008" y="34.235" class="i">odoo-clone</text><text x="4.008" y="36.406" class="i">phoenix-erp_web</text><text x="4.008" y="38.577" class="i">react-fiber-animation</text><text x="4.008" y="40.748" class="i">tpt-odoo</text><text x="4.008" y="42.919" class="i">video-cutter</text><text x="4.008" y="45.09" class="i">yb-global-mcp</text><text x="2.004" y="49.432" class="g">✅</text><text x="4.008" y="49.432" class="g">Clean</text><text x="10.02" y="49.432" class="h">(3):</text><text x="4.008" y="51.603" class="i">puzzle</text><text x="11.022" y="51.603" class="h">master</text><text x="4.008" y="53.774" class="i">voiceswap-desktop</text><text x="22.044" y="53.774" class="h">main</text><text x="4.008" y="55.945" class="i">ybreport</text><text x="13.026" y="55.945" class="h">main</text></svg></svg></g></svg></svg>