<svg xmlns="http://www.w3.org/2000/svg" xmlns:xlink="http://www.w3.org/1999/xlink" width="1040" height="667.88"><rect width="1040" height="667.88" rx="5" ry="5" class="a"/><svg y="0%" x="0%"><circle cx="20" cy="20" r="6" fill="#ff5f58"/><circle cx="40" cy="20" r="6" fill="#ffbd2e"/><circle cx="60" cy="20" r="6" fill="#18c132"/></svg><svg height="607.88" viewBox="0 0 100 60.788" width="1000" x="15" xmlns="http://www.w3.org/2000/svg" xmlns:xlink="http://www.w3.org/1999/xlink" y="50"><style>.a{fill:#282d35}.g{font-weight:700}.g,.h,.i,.j,.k{fill:#b9c0cb;white-space:pre}.i,.j,.k{fill:#66c2cd}.j,.k{fill:#a8cc8c}.k{fill:#dbab79}</style><g font-family="Monaco,Consolas,Menlo,'Bitstream Vera Sans Mono','Powerline Symbols',monospace" font-size="1.67"><defs><symbol id="a"><path fill="transparent" d="M0 0h100v29H0z"/></symbol></defs><path class="a" d="M0 0h100v60.788H0z"/><svg width="100"><svg><use xlink:href="#a"/><text x="2.004" y="3.841" class="g">📦</text><text x="5.01" y="3.841" class="h">Projects</text><text x="14.028" y="3.841" class="h">(</text><text x="15.03" y="3.841" class="i">18</text><text x="18.036" y="3.841" class="h">local</text><text x="24.048" y="3.841" class="h">·</text><text x="26.052" y="3.841" class="h">329</text><text x="30.06" y="3.841" class="h">remote)</text><text x="38.076" y="3.841" class="h">·</text><text x="40.08" y="3.841" class="h">cached</text><text x="47.094" y="3.841" class="h">32s</text><text x="51.102" y="3.841" class="h">ago</text><text x="1.002" y="8.183" class="h">NAME</text><text x="33.066" y="8.183" class="h">STATUS</text><text x="54.108" y="8.183" class="h">BRANCH</text><text x="71.142" y="8.183" class="h">DIRTY</text><text x="86.172" y="8.183" class="h">LAST</text><text x="91.182" y="8.183" class="h">PUSH</text><text x="1.002" y="12.525" class="g">app-hub</text><text x="25.05" y="12.525" class="h">📁</text><text x="28.056" y="12.525" class="h">no-git</text><text x="38.076" y="12.525" class="h">—</text><text x="47.094" y="12.525" class="h">—</text><text x="54.108" y="12.525" class="h">2w</text><text x="57.114" y="12.525" class="h">ago</text><text x="1.002" y="14.696" class="g">claude-headless</text><text x="25.05" y="14.696" class="h">✅</text><text x="27.054" y="14.696" class="j">synced</text><text x="36.072" y="14.696" class="h">main</text><text x="45.09" y="14.696" class="k">1∆</text><text x="51.102" y="14.696" class="h">48m</text><text x="55.11" y="14.696" class="h">ago</text><text x="1.002" y="16.867" class="g">claude-project-cli</text><text x="25.05" y="16.867" class="h">✅</text><text x="27.054" y="16.867" class="j">synced</text><text x="36.072" y="16.867" class="h">main</text><text x="45.09" y="16.867" class="k">1∆</text><text x="51.102" y="16.867" class="h">—</text><text x="1.002" y="19.038" class="g">d3-wysiwyg</text><text x="25.05" y="19.038" class="h">✅</text><text x="27.054" y="19.038" class="j">synced</text><text x="36.072" y="19.038" class="h">master</text><text x="45.09" y="19.038" class="k">8∆</text><text x="51.102" y="19.038" class="h">1d</text><text x="54.108" y="19.038" class="h">ago</text><text x="1.002" y="21.209" class="g">dfl-face-filter</text><text x="25.05" y="21.209" class="h">📁</text><text x="28.056" y="21.209" class="h">no-git</text><text x="38.076" y="21.209" class="h">—</text><text x="47.094" y="21.209" class="h">—</text><text x="54.108" y="21.209" class="h">2w</text><text x="57.114" y="21.209" class="h">ago</text><text x="1.002" y="23.38" class="g">faceswap-api</text><text x="25.05" y="23.38" class="h">✅</text><text x="27.054" y="23.38" class="j">synced</text><text x="36.072" y="23.38" class="h">main</text><text x="45.09" y="23.38" class="k">20∆</text><text x="51.102" y="23.38" class="h">17h</text><text x="55.11" y="23.38" class="h">ago</text><text x="1.002" y="25.551" class="g">learning-odoo</text><text x="25.05" y="25.551" class="h">📁</text><text x="28.056" y="25.551" class="h">no-git</text><text x="38.076" y="25.551" class="h">—</text><text x="47.094" y="25.551" class="h">—</text><text x="54.108" y="25.551" class="h">—</text><text x="1.002" y="27.722" class="g">linkedin</text><text x="25.05" y="27.722" class="h">📁</text><text x="28.056" y="27.722" class="h">no-git</text><text x="38.076" y="27.722" class="h">—</text><text x="47.094" y="27.722" class="h">—</text><text x="54.108" y="27.722" class="h">—</text><text x="1.002" y="29.893" class="g">odoo-clone</text><text x="25.05" y="29.893" class="h">📁</text><text x="28.056" y="29.893" class="h">no-git</text><text x="38.076" y="29.893" class="h">—</text><text x="47.094" y="29.893" class="h">—</text><text x="54.108" y="29.893" class="h">—</text><text x="1.002" y="32.064" class="g">phoenix-erp_web</text><text x="25.05" y="32.064" class="h">📁</text><text x="28.056" y="32.064" class="h">no-git</text><text x="38.076" y="32.064" class="h">—</text><text x="47.094" y="32.064" class="h">—</text><text x="54.108" y="32.064" class="h">—</text><text x="1.002" y="34.235" class="g">puzzle</text><text x="25.05" y="34.235" class="h">✅</text><text x="27.054" y="34.235" class="j">synced</text><text x="36.072" y="34.235" class="h">master</text><text x="45.09" y="34.235" class="h">0∆</text><text x="52.104" y="34.235" class="h">—</text><text x="1.002" y="36.406" class="g">react-fiber-animation</text><text x="25.05" y="36.406" class="h">📁</text><text x="28.056" y="36.406" class="h">no-git</text><text x="38.076" y="36.406" class="h">—</text><text x="47.094" y="36.406" class="h">—</text><text x="54.108" y="36.406" class="h">—</text><text x="1.002" y="38.577" class="g">solidkit</text><text x="25.05" y="38.577" class="h">✅</text><text x="27.054" y="38.577" class="j">synced</text><text x="36.072" y="38.577" class="h">main</text><text x="45.09" y="38.577" class="k">5∆</text><text x="51.102" y="38.577" class="h">18h</text><text x="55.11" y="38.577" class="h">ago</text><text x="1.002" y="40.748" class="g">tpt-odoo</text><text x="25.05" y="40.748" class="h">📁</text><text x="28.056" y="40.748" class="h">no-git</text><text x="38.076" y="40.748" class="h">—</text><text x="47.094" y="40.748" class="h">—</text><text x="54.108" y="40.748" class="h">2w</text><text x="57.114" y="40.748" class="h">ago</text><text x="1.002" y="42.919" class="g">video-cutter</text><text x="25.05" y="42.919" class="h">📁</text><text x="28.056" y="42.919" class="h">no-git</text><text x="38.076" y="42.919" class="h">—</text><text x="47.094" y="42.919" class="h">—</text><text x="54.108" y="42.919" class="h">—</text><text x="1.002" y="45.09" class="g">voiceswap-desktop</text><text x="25.05" y="45.09" class="h">✅</text><text x="27.054" y="45.09" class="j">synced</text><text x="36.072" y="45.09" class="h">main</text><text x="45.09" y="45.09" class="h">0∆</text><text x="52.104" y="45.09" class="h">4h</text><text x="55.11" y="45.09" class="h">ago</text><text x="1.002" y="47.261" class="g">yb-global-mcp</text><text x="25.05" y="47.261" class="h">📁</text><text x="28.056" y="47.261" class="h">no-git</text><text x="38.076" y="47.261" class="h">—</text><text x="47.094" y="47.261" class="h">—</text><text x="54.108" y="47.261" class="h">2w</text><text x="57.114" y="47.261" class="h">ago</text><text x="1.002" y="49.432" class="g">ybreport</text><text x="25.05" y="49.432" class="h">✅</text><text x="27.054" y="49.432" class="j">synced</text><text x="36.072" y="49.432" class="h">main</text><text x="45.09" y="49.432" class="h">0∆</text><text x="52.104" y="49.432" class="h">28m</text><text x="56.112" y="49.432" class="h">ago</text><text x="2.004" y="53.774" class="h">☁️</text><text x="5.01" y="53.774" class="h">Remote</text><text x="12.024" y="53.774" class="h">only</text><text x="17.034" y="53.774" class="h">(319):</text><text x="24.048" y="53.774" class="i">proj</text><text x="29.058" y="53.774" class="i">ls</text><text x="32.064" y="53.774" class="i">--remote</text><text x="41.082" y="53.774" class="h">to</text><text x="44.088" y="53.774" class="h">see</text><text x="48.096" y="53.774" class="h">all</text></svg></svg></g></svg></svg>