<svg xmlns="http://www.w3.org/2000/svg" xmlns:xlink="http://www.w3.org/1999/xlink" width="940" height="602.75"><rect width="940" height="602.75" rx="5" ry="5" class="a"/><svg y="0%" x="0%"><circle cx="20" cy="20" r="6" fill="#ff5f58"/><circle cx="40" cy="20" r="6" fill="#ffbd2e"/><circle cx="60" cy="20" r="6" fill="#18c132"/></svg><svg height="542.75" viewBox="0 0 90 54.275" width="900" x="15" xmlns="http://www.w3.org/2000/svg" xmlns:xlink="http://www.w3.org/1999/xlink" y="50"><style>.a{fill:#282d35}.g{font-weight:700}.g,.h,.j,.k,.l,.m{fill:#b9c0cb;white-space:pre}.j,.k,.l,.m{fill:#a8cc8c}.k,.l,.m{fill:#dbab79}.l,.m{fill:#66c2cd}.m{fill:#e88388}</style><g font-family="Monaco,Consolas,Menlo,'Bitstream Vera Sans Mono','Powerline Symbols',monospace" font-size="1.67"><defs><symbol id="a"><path fill="transparent" d="M0 0h90v26H0z"/></symbol></defs><path class="a" d="M0 0h90v54.275H0z"/><svg width="90"><svg><use xlink:href="#a"/><text x="2.004" y="3.841" class="g">🔍</text><text x="5.01" y="3.841" class="h">Code</text><text x="10.02" y="3.841" class="h">Quality</text><text x="18.036" y="3.841" class="h">Report:</text><text x="26.052" y="3.841" style="white-space:pre" fill="#66c2cd" font-weight="700">solidkit</text><text x="2.004" y="6.012" class="h">Language:</text><text x="12.024" y="6.012" class="h">TypeScript</text><text x="2.004" y="10.354" class="g">OVERALL</text><text x="11.022" y="10.354" class="j">█████</text><text x="16.032" y="10.354" class="h">░░░░░</text><text x="24.048" y="10.354" class="k">54%</text><text x="2.004" y="14.696" class="g">CHECK</text><text x="13.026" y="14.696" class="g">SCORE</text><text x="20.04" y="14.696" class="g">ISSUES</text><text x="2.004" y="16.867" class="l">quality</text><text x="13.026" y="16.867" class="j">███████</text><text x="20.04" y="16.867" class="h">░░░</text><text x="26.052" y="16.867" class="k">78%</text><text x="31.062" y="16.867" class="k">⚠</text><text x="33.066" y="16.867" class="h">Fix</text><text x="37.074" y="16.867" class="h">11</text><text x="40.08" y="16.867" class="h">ESLint</text><text x="47.094" y="16.867" class="h">issues</text><text x="2.004" y="19.038" class="l">testing</text><text x="13.026" y="19.038" class="j">███████</text><text x="20.04" y="19.038" class="h">░░░</text><text x="26.052" y="19.038" class="k">72%</text><text x="31.062" y="19.038" class="k">⚠</text><text x="33.066" y="19.038" class="h">Improve</text><text x="41.082" y="19.038" class="h">test</text><text x="46.092" y="19.038" class="h">coverage</text><text x="55.11" y="19.038" class="h">-</text><text x="57.114" y="19.038" class="h">25</text><text x="60.12" y="19.038" class="h">test</text><text x="65.13" y="19.038" class="h">files</text><text x="71.142" y="19.038" class="h">/</text><text x="73.146" y="19.038" class="h">1124</text><text x="78.156" y="19.038" class="h">source</text><text x="85.17" y="19.038" class="h">files</text><text x="1.002" y="21.209" class="h">(2%)</text><text x="2.004" y="23.38" class="l">logging</text><text x="13.026" y="23.38" class="j">████</text><text x="17.034" y="23.38" class="h">░░░░░░</text><text x="26.052" y="23.38" class="m">40%</text><text x="31.062" y="23.38" class="m">❌</text><text x="33.066" y="23.38" class="h">Replace</text><text x="41.082" y="23.38" class="h">console.log</text><text x="53.106" y="23.38" class="h">with</text><text x="58.116" y="23.38" class="h">structured</text><text x="69.138" y="23.38" class="h">logger</text><text x="2.004" y="25.551" class="l">security</text><text x="13.026" y="25.551" class="j">██</text><text x="15.03" y="25.551" class="h">░░░░░░░░</text><text x="26.052" y="25.551" class="m">20%</text><text x="31.062" y="25.551" class="m">❌</text><text x="33.066" y="25.551" class="h">Fix</text><text x="37.074" y="25.551" class="h">9</text><text x="39.078" y="25.551" class="h">security</text><text x="48.096" y="25.551" class="h">vulnerabilities</text><text x="64.128" y="25.551" class="h">in</text><text x="67.134" y="25.551" class="h">dependencies</text><text x="2.004" y="27.722" class="l">docs</text><text x="13.026" y="27.722" class="j">██████</text><text x="19.038" y="27.722" class="h">░░░░</text><text x="26.052" y="27.722" class="k">60%</text><text x="31.062" y="27.722" class="k">⚠</text><text x="33.066" y="27.722" class="h">Add</text><text x="37.074" y="27.722" class="h">LICENSE</text><text x="45.09" y="27.722" class="h">file</text><text x="2.004" y="32.064" class="g">💡</text><text x="5.01" y="32.064" class="h">Suggestions:</text><text x="4.008" y="34.235" class="h">•</text><text x="6.012" y="34.235" class="h">Fix</text><text x="10.02" y="34.235" class="h">11</text><text x="13.026" y="34.235" class="h">ESLint</text><text x="20.04" y="34.235" class="h">issues</text><text x="4.008" y="36.406" class="h">•</text><text x="6.012" y="36.406" class="h">Improve</text><text x="14.028" y="36.406" class="h">test</text><text x="19.038" y="36.406" class="h">coverage</text><text x="28.056" y="36.406" class="h">-</text><text x="30.06" y="36.406" class="h">25</text><text x="33.066" y="36.406" class="h">test</text><text x="38.076" y="36.406" class="h">files</text><text x="44.088" y="36.406" class="h">/</text><text x="46.092" y="36.406" class="h">1124</text><text x="51.102" y="36.406" class="h">source</text><text x="58.116" y="36.406" class="h">files</text><text x="64.128" y="36.406" class="h">(2%)</text><text x="4.008" y="38.577" class="h">•</text><text x="6.012" y="38.577" class="h">Replace</text><text x="14.028" y="38.577" class="h">console.log</text><text x="26.052" y="38.577" class="h">with</text><text x="31.062" y="38.577" class="h">structured</text><text x="42.084" y="38.577" class="h">logger</text><text x="4.008" y="40.748" class="h">•</text><text x="6.012" y="40.748" class="h">Fix</text><text x="10.02" y="40.748" class="h">9</text><text x="12.024" y="40.748" class="h">security</text><text x="21.042" y="40.748" class="h">vulnerabilities</text><text x="37.074" y="40.748" class="h">in</text><text x="40.08" y="40.748" class="h">dependencies</text><text x="4.008" y="42.919" class="h">•</text><text x="6.012" y="42.919" class="h">Remove</text><text x="13.026" y="42.919" class="h">hardcoded</text><text x="23.046" y="42.919" class="h">secrets/API</text><text x="35.07" y="42.919" class="h">keys</text><text x="40.08" y="42.919" class="h">from</text><text x="45.09" y="42.919" class="h">code</text><text x="4.008" y="45.09" class="h">•</text><text x="6.012" y="45.09" class="h">Add</text><text x="10.02" y="45.09" class="h">LICENSE</text><text x="18.036" y="45.09" class="h">file</text><text x="4.008" y="47.261" class="h">•</text><text x="6.012" y="47.261" class="h">Add</text><text x="10.02" y="47.261" class="h">CONTRIBUTING.md</text><text x="26.052" y="47.261" class="h">for</text><text x="30.06" y="47.261" class="h">contributors</text></svg></svg></g></svg></svg>